<svg xmlns="http://www.w3.org/2000/svg" fill="none" viewBox="1.466 2.199 285.068 427.602"><path d="M1.466 2.2h285.068v427.6H1.466z"/><path fill="#1abcfe" d="M144 216c0-39.359 31.907-71.267 71.267-71.267s71.267 31.908 71.267 71.267c0 39.36-31.908 71.267-71.267 71.267C175.907 287.267 144 255.36 144 216"/><path fill="#0acf83" d="M1.466 358.534c0-39.359 31.907-71.267 71.267-71.267H144v71.267c0 39.36-31.907 71.267-71.267 71.267S1.466 397.894 1.466 358.534"/><path fill="#ff7262" d="M144 2.2v142.533h71.267c39.36 0 71.267-31.907 71.267-71.267S254.627 2.2 215.267 2.2z"/><path fill="#f24e1e" d="M1.466 73.466c0 39.36 31.907 71.267 71.267 71.267H144V2.199H72.733c-39.36 0-71.267 31.908-71.267 71.267"/><path fill="#a259ff" d="M1.466 216c0 39.36 31.907 71.267 71.267 71.267H144V144.733H72.733c-39.36 0-71.267 31.908-71.267 71.267"/></svg>